{"title":"Cal Girl of Cthulhu 2014 Screener zombiRG","uid":11182620,"size":1107962670,"categoryP":"video","categoryS":"movies","magnet":"?xt=urn:btih:b3bd9d6cf08e61be89d5d921ddb50568d156de37&amp;dn=Cal+Girl+of+Cthulhu+2014+Screener+zombiRG&amp;tr=udp%3A%2F%2Ftracker.openbittorrent.com%3A80&amp;tr=udp%3A%2F%2Fopen.demonii.com%3A1337&amp;tr=udp%3A%2F%2Ftracker.coppersurfer.tk%3A6969&amp;tr=udp%3A%2F%2Fexodus.desync.com%3A6969","seeders":2,"leechers":0,"uploader":"zombiRG","files":-1,"time":1412881362,"description":"Call Girl of Cthulhu 2014 Screener zombiRG\n &lt;a href=&quot;\nhttp://image.bayimg.com/d092aa05677d54c9140d643e5c6f544816159eb7.jpg&quot; rel=&quot;nofollow&quot; target=&quot;_NEW&quot;&gt;\nhttp://image.bayimg.com/d092aa05677d54c9140d643e5c6f544816159eb7.jpg&lt;/a&gt;\n\nVideo\nID : 0\nFormat : MPEG-4 Visual\nFormat profile : Advanced Simple@L5\nFormat settings, BVOP : 2\nFormat settings, QPel : No\nFormat settings, GMC : No warppoints\nFormat settings, Matrix : Default (H.263)\nMuxing mode : Packed bitstream\nCodec ID : XVID\nCodec ID/Hint : XviD\nDuration : 1h 32mn\nBit rate : 1 392 Kbps\nWidth : 720 pixels\nHeight : 404 pixels\nDisplay aspect ratio : 16:9\nFrame rate : 23.976 fps\nColor space : YUV\nChroma subsampling : 4:2:0\nBit depth : 8 bits\nScan type : Progressive\nCompression mode : Lossy\nBits/(Pixel*Frame) : 0.200\nStream size : 921 MiB (87%)\nWriting library : XviD 1.2.1 (UTC 2008-12-04)\n\nAudio\nID : 1\nFormat : AC-3\nFormat/Info : Audio Coding 3\nMode extension : CM (complete main)\nFormat settings, Endianness : Big\nCodec ID : 2000\nDuration : 1h 32mn\nBit rate mode : Constant\nBit rate : 192 Kbps\nChannel(s) : 1 channel\nChannel(s)_Original : 2 channels\nChannel positions : Front: L R\nSampling rate : 48.0 KHz\nBit depth : 16 bits\nCompression mode : Lossy\nStream size : 127 MiB (12%)\nAlignment : Aligned on interleaves\nInterleave, duration : 32 ms (0.77 video frame)","torrent":{"xt":"urn:btih:b3bd9d6cf08e61be89d5d921ddb50568d156de37","amp;dn":"Cal+Girl+of+Cthulhu+2014+Screener+zombiRG","amp;tr":["udp%3A%2F%2Ftracker.openbittorrent.com%3A80","udp%3A%2F%2Fopen.demonii.com%3A1337","udp%3A%2F%2Ftracker.coppersurfer.tk%3A6969","udp%3A%2F%2Fexodus.desync.com%3A6969"],"infoHash":"b3bd9d6cf08e61be89d5d921ddb50568d156de37","infoHashBuffer":{"type":"Buffer","data":[179,189,157,108,240,142,97,190,137,213,217,33,221,181,5,104,209,86,222,55]},"announce":[],"urlList":[]}}